<svg width="35" height="24" viewBox="0 0 35 24" fill="none" xmlns="http://www.w3.org/2000/svg">
<path d="M4.1541 17.5805V10.2727C4.1541 10.1666 4.2319 10.0891 4.33822 10.0891H5.26921C5.37553 10.0891 5.44296 10.146 5.4663 10.2727L5.60634 10.9605H5.66339C5.91753 10.3554 6.50102 9.96236 7.14415 9.96236C8.35781 9.96236 9.15913 11.1777 9.15913 13.0086C9.15913 14.8394 8.35522 16.0599 7.14415 16.0599C6.51658 16.0599 6.05238 15.7574 5.70747 15.1032H5.65042V17.5779C5.65042 17.6839 5.57262 17.7615 5.4663 17.7615H4.33822C4.2319 17.7615 4.1541 17.6839 4.1541 17.5779V17.5805ZM6.6229 14.8187C7.25826 14.8187 7.61094 14.1722 7.61094 13.0112C7.61094 11.8501 7.25826 11.2088 6.6229 11.2088C5.98755 11.2088 5.62189 11.863 5.62189 13.0112C5.62189 14.1593 5.98236 14.8187 6.6229 14.8187Z" fill="#4498F5"/>
<path d="M13.1216 11.5475C12.8675 11.4363 12.6419 11.3355 12.3592 11.3355C11.7809 11.3355 11.4723 11.7725 11.4723 12.5793V15.7522C11.4723 15.8582 11.3945 15.9358 11.2882 15.9358H10.1601C10.0538 15.9358 9.97598 15.8582 9.97598 15.7522V10.2726C9.97598 10.1666 10.0538 10.089 10.1601 10.089H11.0911C11.2026 10.089 11.2648 10.1589 11.2882 10.2726L11.4282 10.9605H11.4853C11.7394 10.3218 12.2321 9.97526 12.8805 9.97526C13.1476 9.97526 13.3732 10.0322 13.5573 10.1149C13.6559 10.1718 13.6766 10.239 13.6429 10.3813L13.3758 11.457C13.3472 11.5682 13.2487 11.5966 13.1216 11.5423V11.5475Z" fill="#4498F5"/>
<path d="M14.9266 7.88841C15.4064 7.88841 15.8005 8.21165 15.8005 8.75987C15.8005 9.30808 15.4064 9.63132 14.9266 9.63132C14.4468 9.63132 14.0527 9.29515 14.0527 8.75987C14.0527 8.22458 14.4468 7.88841 14.9266 7.88841ZM14.1797 15.7548V10.2752C14.1797 10.1692 14.2575 10.0916 14.3639 10.0916H15.4919C15.5983 10.0916 15.6761 10.1692 15.6761 10.2752V15.7548C15.6761 15.8608 15.5983 15.9384 15.4919 15.9384H14.3639C14.2575 15.9384 14.1797 15.8608 14.1797 15.7548Z" fill="#4498F5"/>
<path d="M19.5997 9.96494C20.2972 9.96494 20.8133 10.3528 21.0804 11.02H21.1375C21.5524 10.3115 22.0607 9.96494 22.7012 9.96494C23.7593 9.96494 24.3998 10.8493 24.3998 12.2768V15.7522C24.3998 15.8582 24.322 15.9358 24.2157 15.9358H23.0876C22.9813 15.9358 22.9035 15.8582 22.9035 15.7522V12.3879C22.9035 11.7053 22.6364 11.3277 22.1359 11.3277C21.5861 11.3277 21.2983 11.7699 21.2983 12.5871V15.7522C21.2983 15.8582 21.2205 15.9358 21.1141 15.9358H19.9861C19.8797 15.9358 19.8019 15.8582 19.8019 15.7522V12.3879C19.8019 11.7053 19.5348 11.3277 19.0343 11.3277C18.4845 11.3277 18.1967 11.7699 18.1967 12.5871V15.7522C18.1967 15.8582 18.1189 15.9358 18.0126 15.9358H16.8845C16.7782 15.9358 16.7004 15.8582 16.7004 15.7522V10.2727C16.7004 10.1666 16.7782 10.0891 16.8845 10.0891H17.8155C17.9218 10.0891 17.9892 10.1589 18.0126 10.2727L18.1526 10.9605H18.2097C18.4638 10.3218 18.9487 9.96236 19.5971 9.96236L19.5997 9.96494Z" fill="#4498F5"/>
<path d="M27.7063 9.96492C29.1429 9.96492 30.1388 11.2087 30.1388 12.9698V13.2646C30.1388 13.3757 30.061 13.4481 29.9546 13.4481H26.7208C26.7908 14.4049 27.115 14.8885 27.7063 14.8885C28.1419 14.8885 28.4816 14.6842 28.6087 14.1438C28.6372 14.0248 28.7073 13.9783 28.8188 14.0041L29.8613 14.2369C29.9806 14.2627 30.0298 14.3429 29.9883 14.4618C29.6279 15.5014 28.811 16.0651 27.7037 16.0651C26.1944 16.0651 25.1519 14.8497 25.1519 13.0577C25.1519 11.2656 26.2099 9.96751 27.7037 9.96751L27.7063 9.96492ZM28.6165 12.4629C28.5283 11.5966 28.2301 11.1389 27.7063 11.1389C27.1824 11.1389 26.8401 11.6096 26.7364 12.4629H28.6165Z" fill="#4498F5"/>
<path d="M24.3739 18.2993C24.9237 18.0123 25.5383 17.8572 26.1581 17.8572C26.7779 17.8572 27.5325 18.0408 27.7374 18.3278C27.9422 18.6303 27.8437 19.4242 27.6466 19.9802C27.4495 20.5646 27.0813 21.0844 26.6171 21.493C26.4044 21.6895 26.1736 21.8653 25.9973 21.8653C25.935 21.8653 25.891 21.8446 25.8495 21.8033C25.7016 21.6636 25.7717 21.4723 25.948 21.1775C26.4355 20.412 26.8375 19.3622 26.6534 19.0881C26.4641 18.8269 25.3334 18.8424 24.4465 19.0312C24.1146 19.0932 23.9045 19.0932 23.8267 18.9251C23.7204 18.6924 24.0393 18.4829 24.3765 18.2993H24.3739Z" fill="#4498F5"/>
<path d="M7.45795 18.2502C7.59799 18.1364 7.80286 18.2088 8.16332 18.4959C10.8007 20.6189 14.2835 21.4205 17.5354 21.4205C20.4114 21.4205 23.1214 20.787 24.8822 19.8664C25.1778 19.7113 25.4242 19.5845 25.5876 19.7526C25.6369 19.8095 25.6732 19.8716 25.6732 19.9414C25.6732 20.1172 25.4968 20.35 25.1727 20.637C23.277 22.2765 20.2921 23.2022 17.2035 23.2022C13.6766 23.2022 10.0175 21.9791 7.7484 19.1811C7.56427 18.9562 7.45276 18.7674 7.39571 18.6122C7.33347 18.408 7.38793 18.2968 7.45795 18.2476V18.2502Z" fill="#4498F5"/>
<path d="M1.73715 6.89801C0.72836 6.89801 0.0515137 6.18688 0.0515137 5.13959C0.0515137 3.87766 1.04474 3.06827 2.62405 3.06827C2.84967 3.06827 3.04676 3.08119 3.21013 3.11481V2.97C3.21013 2.2537 2.94562 1.90719 2.40881 1.90719C1.9861 1.90719 1.70603 2.13992 1.58155 2.58987C1.54524 2.71917 1.47523 2.77864 1.35593 2.75796L0.375674 2.58987C0.256383 2.56918 0.191551 2.47092 0.227857 2.33645C0.489778 1.35122 1.30666 0.800416 2.51254 0.800416C3.94403 0.800416 4.70646 1.58653 4.70646 3.05534V6.59028C4.70646 6.69631 4.62866 6.77388 4.52233 6.77388H3.59134C3.48243 6.77388 3.41759 6.70406 3.39426 6.59028L3.25422 5.92829H3.19717C2.94302 6.53857 2.43474 6.89801 1.73715 6.89801ZM2.30767 5.78865C2.89375 5.78865 3.21013 5.25337 3.21013 4.27589V3.9061C3.09084 3.88542 2.96377 3.8699 2.8367 3.8699C2.06909 3.8699 1.58933 4.29658 1.58933 4.9715C1.58933 5.47058 1.872 5.78606 2.30767 5.78606V5.78865Z" fill="#4498F5"/>
<path d="M8.50304 0.800416C9.20064 0.800416 9.7167 1.1883 9.98381 1.85547H10.0409C10.4558 1.14693 10.9641 0.800416 11.6072 0.800416C12.6653 0.800416 13.3058 1.68739 13.3058 3.11223V6.5877C13.3058 6.69372 13.228 6.7713 13.1217 6.7713H11.9936C11.8873 6.7713 11.8095 6.69372 11.8095 6.5877V3.22342C11.8095 2.54074 11.5424 2.16061 11.0419 2.16061C10.4921 2.16061 10.2016 2.6028 10.2016 3.41995V6.5877C10.2016 6.69372 10.1238 6.7713 10.0175 6.7713H8.88944C8.78312 6.7713 8.70532 6.69372 8.70532 6.5877V3.22342C8.70532 2.54074 8.43821 2.16061 7.93771 2.16061C7.38793 2.16061 7.09748 2.6028 7.09748 3.41995V6.5877C7.09748 6.69372 7.01969 6.7713 6.91336 6.7713H5.78528C5.67896 6.7713 5.60116 6.69372 5.60116 6.5877V1.11073C5.60116 1.0047 5.67896 0.927126 5.78528 0.927126H6.71627C6.8226 0.927126 6.89002 0.996946 6.91336 1.11073L7.0534 1.79858H7.11045C7.36459 1.15986 7.84954 0.800416 8.50045 0.800416H8.50304Z" fill="#4498F5"/>
<path d="M15.6372 6.89803C14.6284 6.89803 13.9515 6.1869 13.9515 5.13961C13.9515 3.87768 14.9448 3.06829 16.5241 3.06829C16.7497 3.06829 16.9468 3.08122 17.1102 3.11483V2.97002C17.1102 2.25372 16.8457 1.90721 16.3088 1.90721C15.8861 1.90721 15.6061 2.13994 15.4816 2.58989C15.4453 2.71919 15.3753 2.77866 15.256 2.75798L14.2757 2.58989C14.1564 2.5692 14.0916 2.47094 14.1279 2.33647C14.3898 1.34607 15.2067 0.797852 16.4126 0.797852C17.8441 0.797852 18.6065 1.58397 18.6065 3.05277V6.58772C18.6065 6.69374 18.5287 6.77132 18.4224 6.77132H17.4914C17.3825 6.77132 17.3176 6.7015 17.2943 6.58772L17.1543 5.92572H17.0972C16.8431 6.536 16.3348 6.89544 15.6372 6.89544V6.89803ZM16.2103 5.78867C16.7964 5.78867 17.1128 5.25339 17.1128 4.27591V3.90612C16.9935 3.88544 16.8664 3.86992 16.7393 3.86992C15.9717 3.86992 15.492 4.2966 15.492 4.97152C15.492 5.4706 15.7746 5.78609 16.2103 5.78609V5.78867Z" fill="#4498F5"/>
<path d="M19.234 5.74728C19.234 5.64902 19.2626 5.56368 19.3196 5.48093L21.6147 2.1089H19.4752C19.3689 2.1089 19.2911 2.03132 19.2911 1.9253V1.11073C19.2911 1.00471 19.3689 0.927134 19.4752 0.927134H23.1836C23.2899 0.927134 23.3677 1.00471 23.3677 1.11073V1.95374C23.3677 2.05201 23.347 2.12959 23.2822 2.22009L20.9638 5.59213H23.2951C23.4066 5.59213 23.4792 5.66971 23.4792 5.77573V6.59029C23.4792 6.69632 23.4014 6.77389 23.2951 6.77389H19.4182C19.3118 6.77389 19.234 6.69632 19.234 6.59029V5.74728Z" fill="#4498F5"/>
<path d="M23.7593 3.84921C23.7593 2.1063 24.8511 0.800416 26.2981 0.800416C27.7452 0.800416 28.8499 2.1063 28.8499 3.84921C28.8499 5.59212 27.7504 6.89801 26.2981 6.89801C24.8459 6.89801 23.7593 5.59212 23.7593 3.84921ZM26.2981 5.70331C26.9387 5.70331 27.2991 5.04132 27.2991 3.84921C27.2991 2.6571 26.9387 1.99252 26.2981 1.99252C25.6576 1.99252 25.3101 2.65452 25.3101 3.84921C25.3101 5.04391 25.6628 5.70331 26.2981 5.70331Z" fill="#4498F5"/>
<path d="M32.5012 0.800416C33.58 0.800416 34.2413 1.68739 34.2413 3.11223V6.5877C34.2413 6.69372 34.1635 6.7713 34.0572 6.7713H32.9291C32.8228 6.7713 32.745 6.69372 32.745 6.5877V3.22342C32.745 2.54074 32.4571 2.16061 31.9333 2.16061C31.3628 2.16061 31.0516 2.6028 31.0516 3.41995V6.5877C31.0516 6.69372 30.9738 6.7713 30.8674 6.7713H29.7394C29.633 6.7713 29.5552 6.69372 29.5552 6.5877V1.11073C29.5552 1.0047 29.633 0.927126 29.7394 0.927126H30.6704C30.7767 0.927126 30.8441 0.996946 30.8674 1.11073L31.0075 1.79858H31.0645C31.3187 1.15986 31.827 0.800416 32.496 0.800416H32.5012Z" fill="#4498F5"/>
</svg>
