<svg width="42" height="14" viewBox="0 0 42 14" fill="none" xmlns="http://www.w3.org/2000/svg">
<path d="M18.7071 5.83448C18.5853 5.83448 17.8798 6.61426 16.9777 6.68231C16.3403 6.72975 16.0013 6.27525 16.0013 5.97683C17.961 5.69901 18.7682 4.93234 18.7682 3.95591C18.7682 3.29788 18.2051 2.613 17.2761 2.613C15.2415 2.613 14.7058 4.57274 14.6378 5.92938C14.5903 6.52623 14.2444 6.61426 13.9797 6.60052C13.7088 6.58679 13.5115 6.34955 13.5589 5.92251L13.9591 3.22983C13.966 3.18238 14.0677 2.63985 13.6813 2.62611C13.2742 2.60551 12.7386 2.79593 12.6437 3.37904C12.5557 3.94904 12.5151 4.27431 12.4402 4.73568C12.3858 5.12214 12.3109 5.51546 12.2772 5.8888C12.2023 6.24154 12.0805 6.4176 11.7072 6.4176C11.2327 6.37015 11.2458 5.95622 11.2933 5.60349L11.6254 3.2367C11.6323 3.18925 11.734 2.63985 11.3476 2.62611C10.9405 2.60551 10.4049 2.80217 10.31 3.38591C10.2894 3.52825 10.2694 3.65686 10.2488 3.77923V3.77236C10.1539 4.45037 9.83487 4.74879 9.46902 4.6745C9.10255 4.59334 9.2861 3.58944 9.29297 3.5757C9.41471 2.73475 9.11628 2.43632 8.38396 2.74848C7.99751 2.91143 7.59732 3.33846 7.33261 3.65749L7.39379 3.23045C7.40066 3.18301 7.50242 2.64047 7.11597 2.62674C6.70891 2.60614 6.17325 2.79655 6.07835 3.37967C6.07835 3.40027 6.07149 3.42025 6.07149 3.44085C6.07149 3.44085 6.02404 3.69182 5.96285 3.90909C5.93601 3.99712 5.90854 4.08514 5.88794 4.14633C5.80677 4.38357 5.71812 4.61457 5.62323 4.83807C5.52146 5.0622 5.4197 5.27884 5.29796 5.48923C5.23677 5.591 5.17621 5.69276 5.10816 5.78766C5.04011 5.88256 4.97269 5.97745 4.89777 6.05924C4.75542 6.22905 4.59248 6.3714 4.42953 6.47316C4.40268 6.49376 4.37521 6.50687 4.34837 6.52061C3.56173 6.85961 3.41938 6.09982 3.39878 5.99181C3.39191 5.9375 3.38505 5.87631 3.38505 5.81513C3.37818 5.72023 3.37818 5.61847 3.38505 5.50984C3.38505 5.40807 3.39191 5.29944 3.40565 5.19081C3.42563 4.97355 3.45996 4.75004 3.50741 4.52591C3.54799 4.32239 3.59544 4.12573 3.64976 3.9222C4.11113 3.97651 4.54503 4.01709 4.70111 4.02396C5.07383 4.05081 5.28422 3.86101 5.31793 3.65124C5.3454 3.4883 5.3248 3.57695 5.39223 3.18987C5.49399 2.6205 5.37225 2.6205 4.90401 2.6205H4.09677C4.1105 2.59365 4.11737 2.56618 4.13048 2.53247C4.30654 2.10543 4.53067 1.71836 4.76104 1.29132C5.0526 0.741923 4.97831 0.613314 4.6187 0.308022C3.50679 -0.512331 2.94365 0.952318 2.81442 1.18269C2.71266 1.41306 2.61776 1.64406 2.516 1.91502C2.42797 2.14539 2.34618 2.38325 2.27875 2.6205H1.10566C0.752922 2.6205 0.786635 2.94577 0.786635 2.94577C0.786635 3.25106 1.51209 3.52201 2.00093 3.66435C1.96035 3.86101 1.92601 4.06454 1.89917 4.2612C1.85859 4.53278 1.83799 4.8106 1.82488 5.09529C1.81801 5.37998 1.82488 5.67154 1.86546 5.97683C1.88606 6.12604 1.91977 6.28212 1.96722 6.44507C1.99407 6.52623 2.02154 6.60801 2.04838 6.68917C2.08209 6.77034 2.12268 6.85212 2.16388 6.93328C2.25191 7.09623 2.37428 7.25855 2.53035 7.40152C2.68643 7.54386 2.87623 7.65936 3.07289 7.73366C3.17465 7.76737 3.26955 7.79484 3.37131 7.80795C3.46621 7.82169 3.58857 7.82855 3.6766 7.82855C3.85266 7.82855 4.03621 7.80171 4.2054 7.75364C4.37521 7.70619 4.53754 7.62503 4.67988 7.53637C4.82223 7.44148 4.95084 7.33971 5.05947 7.22421C5.27673 7.00008 5.43218 6.74911 5.56142 6.49876C5.58826 6.44444 5.61573 6.38326 5.64258 6.32894C5.59513 6.84463 5.62198 7.30538 5.81239 7.54262C6.18511 7.99712 6.7008 7.84791 6.75511 7.4883C6.80256 7.16927 6.89746 6.53871 6.97238 6.06423C7.06041 5.57601 7.1553 5.28446 7.33198 4.88427C7.54238 4.41603 8.13236 4.02271 8.11862 4.57211C8.08491 6.17911 9.29172 6.20658 9.99033 5.49423C9.88857 6.19971 9.8611 6.85712 10.2344 7.31162C10.9668 8.19316 12.0587 7.75925 12.6287 7.3728C13.1375 8.06455 14.4598 7.91533 15.0361 7.21672C15.45 7.78672 16.2229 7.84728 16.7929 7.82731C18.4274 7.73928 19.4444 5.83323 18.7052 5.83323L18.7071 5.83448ZM16.6587 3.98338C17.0589 3.78672 17.5265 3.79359 17.5745 4.03083C17.6832 4.53278 16.9708 4.95981 16.0081 5.10216C16.0081 4.87865 16.0893 4.27494 16.6593 3.98338H16.6587Z" fill="#3B86F6"/>
<path d="M29.242 0.0601807H30.2864C30.4169 0.0601807 30.5224 0.16569 30.5224 0.296173V7.59507C30.5224 7.72555 30.4163 7.83106 30.2864 7.83106H29.2426C29.1121 7.83106 29.0066 7.72555 29.0066 7.59507V0.296173C29.0066 0.16569 29.1121 0.0601807 29.2426 0.0601807H29.242Z" fill="#3B86F6"/>
<path d="M31.3529 0.0601807H32.3974C32.5279 0.0601807 32.6334 0.16569 32.6334 0.296173V7.59507C32.6334 7.72555 32.5273 7.83106 32.3974 7.83106H31.3529C31.2225 7.83106 31.1169 7.72555 31.1169 7.59507V0.296173C31.1169 0.16569 31.2225 0.0601807 31.3529 0.0601807Z" fill="#3B86F6"/>
<path d="M37.498 6.82463L36.9886 6.24027C36.9018 6.141 36.7894 6.16535 36.6652 6.24027C36.4417 6.40197 36.0808 6.55118 35.6956 6.55118C34.9895 6.55118 34.5581 6.00303 34.505 5.5017C34.5032 5.48422 34.5175 5.46924 34.535 5.46924H37.6847C37.7964 5.46924 37.9082 5.38246 37.9207 5.25822C37.9332 5.17144 37.9456 5.00974 37.9456 4.92234C37.9456 3.58005 36.9012 2.60986 35.6213 2.60986C34.1423 2.60986 33.0853 3.81542 33.0853 5.22014C33.0853 6.62485 34.1417 7.83041 35.6338 7.83041C36.4417 7.83041 37.076 7.53198 37.4861 7.14678C37.6104 7.04751 37.5854 6.91079 37.4986 6.82338L37.498 6.82463ZM35.5838 3.75424C36.0452 3.75424 36.4348 4.12134 36.4879 4.56648C36.4897 4.58396 36.476 4.59956 36.4579 4.59956H34.6486C34.6305 4.59956 34.6162 4.58333 34.6193 4.56523C34.6961 4.10947 35.0988 3.75424 35.5838 3.75424Z" fill="#3B86F6"/>
<path d="M38.6189 7.83156H39.6259C39.7564 7.83156 39.8619 7.72605 39.8619 7.59556V4.57824C39.8619 4.5002 39.8844 4.42341 39.9319 4.36097C40.0661 4.18429 40.3395 3.96141 40.7447 3.96141C40.8815 3.96141 41.0681 4.02384 41.105 4.03633C41.2042 4.08627 41.3285 4.03633 41.3909 3.92458L41.851 3.11671C42.0002 2.8058 41.4783 2.61975 40.8939 2.61975C40.166 2.61975 39.7159 3.08487 39.5211 3.34646C39.5073 3.36519 39.4786 3.36019 39.4705 3.33834L39.315 2.90569C39.2776 2.80642 39.2033 2.74399 39.0915 2.74399H38.6189C38.4947 2.74399 38.3829 2.84326 38.3829 2.97998V7.59619C38.3829 7.72605 38.4891 7.83218 38.6189 7.83218V7.83156Z" fill="#3B86F6"/>
<path d="M23.7911 6.78895C23.8798 6.66221 23.7961 6.55296 23.7087 6.48366L23.1693 6.01916C23.1356 5.99419 23.0988 5.98171 23.0594 5.98171C23.0033 5.98171 22.9471 6.0073 22.8996 6.05475L22.8553 6.09658C22.6368 6.30573 22.3883 6.54234 21.8682 6.54234C21.164 6.54234 20.6121 5.96298 20.6121 5.22316C20.6121 4.48334 21.1815 3.90398 21.8807 3.90398C22.2104 3.90398 22.545 4.05881 22.7723 4.3154C22.8366 4.37034 22.8909 4.39656 22.939 4.39656C22.9745 4.39656 23.0076 4.3822 23.0395 4.35411L23.6226 3.79659C23.6769 3.75851 23.7119 3.70544 23.7206 3.64801C23.7287 3.59494 23.7131 3.54 23.6788 3.49505C23.1887 2.90195 22.5887 2.61414 21.8426 2.61414C20.408 2.61414 19.1962 3.80846 19.1962 5.22254C19.1962 6.63662 20.3774 7.83094 21.8295 7.83094C22.6742 7.83094 23.3516 7.4707 23.7899 6.78832L23.7911 6.78895Z" fill="#3B86F6"/>
<path d="M28.4136 7.4714V4.77372C28.4136 3.41895 28.0527 2.61108 26.4994 2.61108C25.704 2.61108 24.908 2.80962 24.8087 2.84708C24.697 2.88454 24.5977 2.97132 24.6346 3.15799L24.7463 3.80416C24.7713 3.96585 24.8581 4.07761 25.0323 4.02766C25.3182 3.94088 25.9644 3.84099 26.4245 3.84099C26.8322 3.84099 27.0344 4.01642 27.0669 4.49777C27.0731 4.59517 26.9832 4.67133 26.8883 4.64886C26.7223 4.60953 26.4582 4.56208 26.1635 4.56208C24.8955 4.56208 24.1744 5.2457 24.1744 6.12849C24.1744 7.18546 24.8581 7.83163 25.8526 7.83163C26.5625 7.83163 27.0082 7.5151 27.2979 7.26163C27.3129 7.24852 27.3354 7.25413 27.3435 7.27224L27.5401 7.72487C27.5682 7.7898 27.6325 7.83163 27.7031 7.83163H28.2356C28.3336 7.83163 28.4129 7.75234 28.4129 7.65432V7.4714H28.4136ZM27.0463 6.24898C27.0463 6.27833 27.0382 6.30704 27.0213 6.33139C26.9071 6.49309 26.5531 6.77528 26.1885 6.77528C25.8033 6.77528 25.5423 6.50183 25.5423 6.12911C25.5423 5.73142 25.8657 5.45797 26.3502 5.45797C26.6224 5.45797 26.8796 5.54288 26.9901 5.58471C27.0238 5.59782 27.0463 5.63028 27.0463 5.6665V6.24961V6.24898Z" fill="#3B86F6"/>
<path d="M22.0456 10.0417C21.6405 10.0417 21.3352 10.2596 21.2415 10.3845L21.1604 10.1791C21.1416 10.1292 21.0979 10.1042 21.0542 10.1042H20.8114C20.7489 10.1042 20.6927 10.1541 20.6927 10.2228V13.8214C20.6927 13.8838 20.7489 13.94 20.8114 13.94H21.3102C21.4226 13.94 21.46 13.8963 21.46 13.8214V12.5222C21.5474 12.5721 21.7716 12.6595 22.0144 12.6595C22.6874 12.6595 23.2487 12.0864 23.2487 11.3509C23.2487 10.6155 22.7318 10.0424 22.0456 10.0424V10.0417ZM21.9152 11.9865C21.6036 11.9865 21.4288 11.8429 21.4288 11.8429V11.095C21.4663 10.9639 21.6217 10.7148 21.9401 10.7148C22.2829 10.7148 22.5195 11.0013 22.5195 11.3503C22.5195 11.6993 22.2642 11.9859 21.9152 11.9859V11.9865Z" fill="#1829A3"/>
<path d="M24.82 10.0417C24.4336 10.0417 24.2032 10.3033 24.1158 10.4282L24.0284 10.1853C24.0097 10.1354 23.9722 10.1042 23.916 10.1042H23.6794C23.617 10.1042 23.5608 10.1541 23.5608 10.2228V12.4791C23.5608 12.5415 23.617 12.5977 23.6794 12.5977H24.1595C24.2469 12.5977 24.3031 12.5665 24.3031 12.4791V10.9707C24.3468 10.8833 24.496 10.7154 24.7457 10.7154C24.8144 10.7154 24.9074 10.7466 24.9262 10.7528C24.9761 10.7778 25.0386 10.7528 25.0698 10.6967L25.3001 10.2915C25.3751 10.1354 25.1135 10.0424 24.82 10.0424V10.0417Z" fill="#1829A3"/>
<path d="M26.5038 10.0417C25.7621 10.0417 25.2327 10.6461 25.2327 11.3503C25.2327 12.0545 25.7627 12.6589 26.51 12.6589C26.9152 12.6589 27.233 12.5091 27.4384 12.3161C27.5008 12.2662 27.4883 12.1975 27.4446 12.1544L27.1893 11.8616C27.1456 11.8117 27.0894 11.8242 27.027 11.8616C26.9146 11.9428 26.7342 12.0171 26.5406 12.0171C26.1791 12.0171 25.9612 11.7305 25.9425 11.4752H27.5383C27.5945 11.4752 27.6506 11.4315 27.6569 11.369C27.6631 11.3253 27.6694 11.2448 27.6694 11.2011C27.6694 10.5281 27.1462 10.0417 26.5038 10.0417ZM25.9993 11.0388C26.0305 10.8022 26.2359 10.6149 26.4857 10.6149C26.7354 10.6149 26.9221 10.8078 26.9408 11.0388H26H25.9993Z" fill="#1829A3"/>
<path d="M31.0066 10.0417C30.5577 10.0417 30.2337 10.3158 30.1282 10.4282C29.9228 10.1791 29.673 10.0417 29.3178 10.0417C28.8752 10.0417 28.5886 10.2909 28.4825 10.4095L28.3951 10.1729C28.3826 10.1354 28.3451 10.1042 28.2889 10.1042H28.0586C27.9961 10.1042 27.9399 10.1541 27.9399 10.2228V12.4791C27.9399 12.5415 27.9961 12.5977 28.0586 12.5977H28.563C28.6254 12.5977 28.6816 12.5415 28.6816 12.4791V11.1081C28.7441 10.9401 28.8933 10.7154 29.2048 10.7154C29.5163 10.7154 29.6662 10.9214 29.6662 11.2454V12.4791C29.6662 12.5415 29.7161 12.5977 29.7848 12.5977H30.2524C30.3148 12.5977 30.371 12.5415 30.371 12.4791V11.2142C30.371 11.1018 30.3648 10.9776 30.3648 10.9776C30.3648 10.9776 30.5271 10.716 30.8886 10.716C31.2001 10.716 31.3562 10.922 31.3562 11.2461V12.4797C31.3562 12.5421 31.4062 12.5983 31.4748 12.5983H31.9799C32.0486 12.5983 32.0985 12.5421 32.0985 12.4797V11.2891C32.0985 10.6348 31.8057 10.043 31.0078 10.043L31.0066 10.0417Z" fill="#1829A3"/>
<path d="M32.8851 8.76355C32.6485 8.76355 32.4612 8.95646 32.4612 9.1937C32.4612 9.43095 32.6479 9.62386 32.8851 9.62386C33.1223 9.62386 33.3215 9.43095 33.3215 9.1937C33.3215 8.95646 33.1286 8.76355 32.8851 8.76355Z" fill="#1829A3"/>
<path d="M36.0356 10.104H35.5618C35.4619 10.104 35.4244 10.129 35.4244 10.2226V11.5187C35.387 11.7429 35.1878 11.9863 34.9256 11.9863C34.639 11.9863 34.4705 11.7809 34.4705 11.45V10.2226C34.4705 10.154 34.4143 10.104 34.3519 10.104H33.8405C33.7781 10.104 33.7219 10.154 33.7219 10.2226V11.4313C33.7219 12.0669 34.0022 12.6594 34.7751 12.6594C35.2677 12.6594 35.4981 12.3978 35.6105 12.2979L35.6854 12.5033C35.7041 12.5532 35.7416 12.5969 35.804 12.5969H36.0344C36.0968 12.5969 36.153 12.5407 36.153 12.4783V10.222C36.153 10.1533 36.0968 10.1034 36.0344 10.1034L36.0356 10.104Z" fill="#1829A3"/>
<path d="M39.6503 10.0417C39.2014 10.0417 38.8774 10.3158 38.7719 10.4282C38.5665 10.1791 38.3167 10.0417 37.9615 10.0417C37.5188 10.0417 37.2323 10.2909 37.1262 10.4095L37.0387 10.1729C37.0263 10.1354 36.9888 10.1042 36.9326 10.1042H36.7022C36.6398 10.1042 36.5836 10.1541 36.5836 10.2228V12.4791C36.5836 12.5415 36.6398 12.5977 36.7022 12.5977H37.2073C37.2697 12.5977 37.3259 12.5415 37.3259 12.4791V11.1081C37.3884 10.9401 37.5376 10.7154 37.8491 10.7154C38.1606 10.7154 38.3105 10.9214 38.3105 11.2454V12.4791C38.3105 12.5415 38.3604 12.5977 38.4291 12.5977H38.8967C38.9591 12.5977 39.0153 12.5415 39.0153 12.4791V11.2142C39.0153 11.1018 39.0091 10.9776 39.0091 10.9776C39.0091 10.9776 39.1714 10.716 39.5329 10.716C39.8444 10.716 40.0005 10.922 40.0005 11.2461V12.4797C40.0005 12.5421 40.0505 12.5983 40.1191 12.5983H40.6242C40.6929 12.5983 40.7428 12.5421 40.7428 12.4797V11.2891C40.7428 10.6348 40.45 10.043 39.6521 10.043L39.6503 10.0417Z" fill="#1829A3"/>
<path d="M33.1516 10.1041H32.634C32.5716 10.1041 32.5154 10.1541 32.5154 10.2227V12.479C32.5154 12.5415 32.5716 12.5977 32.634 12.5977H33.1516C33.214 12.5977 33.2702 12.5415 33.2702 12.479V10.2227C33.2702 10.1541 33.214 10.1041 33.1516 10.1041Z" fill="#1829A3"/>
</svg>
