<svg width="47" height="8" viewBox="0 0 47 8" fill="none" xmlns="http://www.w3.org/2000/svg">
<g clip-path="url(#clip0_124_50958)">
<path d="M0.842407 7.07415L3.65437 2.36531H1.35371C1.30878 2.16812 1.27981 1.99529 1.26626 1.84732C1.25289 1.69935 1.24603 1.55806 1.24603 1.42347C1.24603 1.28887 1.25271 1.15222 1.26626 1.01316C1.27981 0.874276 1.30878 0.710531 1.35371 0.522095H6.82967L6.96427 0.952634L4.13892 5.63473H6.70862C6.7712 6.00269 6.80275 6.31646 6.80275 6.57657C6.80275 6.71117 6.79606 6.84799 6.78252 6.98688C6.76914 7.1261 6.74428 7.28968 6.70845 7.47794H1.05776L0.842407 7.07432V7.07415Z" fill="#EE426F"/>
<path d="M11.4846 2.97083C11.4755 2.80931 11.4307 2.67488 11.35 2.56721C11.2692 2.45953 11.166 2.37671 11.0405 2.31824C10.9148 2.25995 10.7757 2.21965 10.6235 2.19719C10.4709 2.1749 10.314 2.16359 10.1526 2.16359C9.93746 2.16359 9.68609 2.18845 9.39924 2.23766C9.11204 2.28704 8.8161 2.3654 8.51124 2.47307C8.43048 2.32064 8.36087 2.18176 8.30274 2.05608C8.24427 1.93057 8.19952 1.80283 8.16815 1.67269C8.1366 1.54272 8.11431 1.4083 8.10093 1.26907C8.08756 1.13002 8.0807 0.9709 8.0807 0.791379C8.51124 0.648038 8.93938 0.54036 9.36563 0.468518C9.79154 0.396847 10.1749 0.36084 10.516 0.36084C10.9822 0.36084 11.404 0.416908 11.7807 0.529043C12.1574 0.641351 12.478 0.813841 12.7426 1.04703C13.007 1.28039 13.2112 1.57839 13.3547 1.94171C13.498 2.30504 13.57 2.73781 13.57 3.24002V7.18209C13.229 7.28085 12.8166 7.37961 12.3323 7.47803C11.8479 7.57662 11.3366 7.626 10.7985 7.626C10.332 7.626 9.90385 7.58331 9.5136 7.49826C9.12336 7.41322 8.78918 7.27622 8.51124 7.08796C8.23313 6.89952 8.01555 6.65073 7.85883 6.34124C7.70177 6.03175 7.62341 5.653 7.62341 5.20445C7.62341 4.75591 7.71755 4.40184 7.90598 4.11465C8.09425 3.82762 8.33652 3.59889 8.63246 3.42846C8.92841 3.25819 9.25573 3.1392 9.61459 3.07199C9.97329 3.00478 10.3231 2.97117 10.6641 2.97117H11.4849L11.4846 2.97083ZM11.4846 4.39687H10.7176C10.4035 4.39687 10.1391 4.46408 9.92374 4.59868C9.70856 4.73328 9.60088 4.92154 9.60088 5.16382C9.60088 5.34334 9.64117 5.48462 9.72193 5.5875C9.80269 5.69072 9.90351 5.76908 10.0246 5.82292C10.1456 5.87675 10.2756 5.91276 10.4146 5.93059C10.5537 5.9486 10.6814 5.95751 10.798 5.95751C10.8788 5.95751 10.9952 5.9486 11.1478 5.93059C11.3002 5.91276 11.4122 5.89493 11.4842 5.87675V4.39687H11.4846Z" fill="#EE426F"/>
<path d="M15.0094 0.548788C15.4218 0.486204 15.8456 0.439052 16.2808 0.407503C16.7158 0.376126 17.1352 0.360352 17.5388 0.360352C17.9424 0.360352 18.355 0.398587 18.7497 0.474716C19.1442 0.551017 19.4984 0.6899 19.8125 0.891711C20.1265 1.09352 20.3797 1.37163 20.5728 1.72587C20.7655 2.08028 20.8621 2.5398 20.8621 3.10493C20.8621 3.61623 20.7746 4.04677 20.5997 4.39655C20.4248 4.74634 20.1939 5.0289 19.9069 5.24426C19.6197 5.45944 19.2946 5.61427 18.9314 5.70841C18.5681 5.80254 18.1981 5.84969 17.8214 5.84969C17.6688 5.84969 17.5388 5.84523 17.4313 5.83614C17.3236 5.8274 17.2564 5.81831 17.2295 5.80922V7.46417C16.9961 7.50892 16.7876 7.53807 16.6038 7.55162C16.4198 7.56499 16.2561 7.57185 16.1128 7.57185C15.9602 7.57185 15.7966 7.56516 15.6217 7.55162C15.4468 7.53807 15.2428 7.50892 15.0096 7.46417V0.548788H15.0094ZM17.2293 4.11416C17.2741 4.12324 17.3301 4.12993 17.3975 4.13439C17.4647 4.13902 17.5206 4.14108 17.5657 4.14108C17.8795 4.14108 18.1375 4.06255 18.3394 3.90566C18.5412 3.74877 18.642 3.48181 18.642 3.10511C18.642 2.78224 18.541 2.53328 18.3394 2.35839C18.1375 2.1835 17.8886 2.09606 17.5926 2.09606H17.438C17.3708 2.09606 17.3012 2.10069 17.2295 2.1096V4.11433L17.2293 4.11416Z" fill="#EE426F"/>
<path d="M21.9517 0.548788C22.3641 0.486204 22.7879 0.439052 23.2231 0.407503C23.6581 0.376126 24.0775 0.360352 24.4811 0.360352C24.8847 0.360352 25.2973 0.398587 25.692 0.474716C26.0865 0.551017 26.4407 0.6899 26.7549 0.891711C27.0686 1.09352 27.3221 1.37163 27.5149 1.72587C27.7078 2.08028 27.8042 2.5398 27.8042 3.10493C27.8042 3.61623 27.7168 4.04677 27.5419 4.39655C27.367 4.74634 27.1358 5.0289 26.8488 5.24426C26.5618 5.45944 26.2367 5.61427 25.8735 5.70841C25.5102 5.80254 25.1402 5.84969 24.7635 5.84969C24.6109 5.84969 24.4809 5.84523 24.3733 5.83614C24.2658 5.8274 24.1984 5.81831 24.1714 5.80922V7.46417C23.9381 7.50892 23.7296 7.53807 23.5458 7.55162C23.3618 7.56499 23.1981 7.57185 23.0547 7.57185C22.9021 7.57185 22.7385 7.56516 22.5637 7.55162C22.3888 7.53807 22.1846 7.50892 21.9515 7.46417V0.548788H21.9517ZM24.1716 4.11416C24.2164 4.12324 24.2726 4.12993 24.3398 4.13439C24.4072 4.13902 24.4629 4.14108 24.508 4.14108C24.822 4.14108 25.0799 4.06255 25.2817 3.90566C25.4835 3.74877 25.5843 3.48181 25.5843 3.10511C25.5843 2.78224 25.4833 2.53328 25.2817 2.35839C25.0799 2.1835 24.8309 2.09606 24.5349 2.09606H24.3801C24.3129 2.09606 24.2433 2.10069 24.1716 2.1096V4.11433V4.11416Z" fill="#EE426F"/>
<path d="M28.8938 0.522053C29.091 0.477301 29.2862 0.445924 29.479 0.42792C29.6719 0.410088 29.8578 0.401001 30.0375 0.401001C30.2078 0.401001 30.3917 0.410088 30.5891 0.42792C30.7863 0.445924 30.9793 0.477301 31.1676 0.522053V7.46435C30.9342 7.50002 30.7237 7.52694 30.5352 7.54511C30.3468 7.56294 30.1764 7.57203 30.024 7.57203C29.8715 7.57203 29.7011 7.56294 29.5127 7.54511C29.3242 7.52711 29.1179 7.50019 28.8937 7.46435V0.522053H28.8938Z" fill="#EE426F"/>
<path d="M32.6744 0.858406C32.9884 0.750729 33.3694 0.645451 33.8181 0.542231C34.2665 0.439183 34.8271 0.387573 35.4998 0.387573C35.8943 0.387573 36.289 0.42118 36.6837 0.488393C37.0783 0.555605 37.4349 0.69689 37.7533 0.912245C38.0715 1.12743 38.3318 1.43692 38.5336 1.84054C38.7354 2.24416 38.8362 2.77792 38.8362 3.44164V7.46447C38.6029 7.50922 38.3923 7.53837 38.2039 7.55192C38.0155 7.56529 37.8495 7.57215 37.7061 7.57215C37.5535 7.57215 37.3833 7.56546 37.195 7.55192C37.0066 7.53837 36.7957 7.50922 36.5627 7.46447V3.68392C36.5627 3.20863 36.4728 2.86776 36.2936 2.66132C36.1141 2.45505 35.8406 2.35184 35.4729 2.35184C35.3741 2.35184 35.2688 2.36075 35.1567 2.37875C35.0444 2.39676 34.9751 2.41459 34.9482 2.43259V7.46447C34.7148 7.50922 34.5043 7.53837 34.3158 7.55192C34.1274 7.56529 33.9614 7.57215 33.8181 7.57215C33.6655 7.57215 33.4952 7.56546 33.3068 7.55192C33.1185 7.53837 32.9076 7.50922 32.6744 7.46447V0.858406Z" fill="#EE426F"/>
<path d="M44.016 5.70177V3.72396C44.2401 3.67921 44.4399 3.64783 44.6148 3.62983C44.7897 3.612 44.9579 3.60291 45.1192 3.60291C45.4332 3.60291 45.8054 3.6432 46.236 3.72396V7.14136C45.9757 7.24012 45.6124 7.3478 45.1461 7.46422C44.6796 7.58064 44.1371 7.63911 43.5181 7.63911C42.8991 7.63911 42.3229 7.54258 41.87 7.34985C41.417 7.15713 41.047 6.89462 40.76 6.56268C40.4728 6.2309 40.2643 5.84082 40.1343 5.39211C40.0042 4.94374 39.9392 4.46382 39.9392 3.95252C39.9392 3.44122 40.0177 2.99285 40.1746 2.55339C40.3315 2.11411 40.5649 1.73261 40.8744 1.40974C41.1838 1.08688 41.5672 0.831234 42.0247 0.642798C42.4822 0.454533 43.0113 0.360229 43.6123 0.360229C43.9262 0.360229 44.2715 0.396065 44.6482 0.467907C45.0249 0.53975 45.4375 0.665259 45.886 0.844608C45.8771 0.997209 45.8591 1.14055 45.8322 1.27515C45.8052 1.40974 45.7716 1.54657 45.7312 1.68545C45.6909 1.82468 45.6413 1.97265 45.5832 2.12937C45.5247 2.28643 45.4555 2.46355 45.3747 2.66073C45.0697 2.53522 44.7871 2.44331 44.5272 2.38485C44.2669 2.32655 44.0428 2.2974 43.8544 2.2974C43.5584 2.2974 43.3072 2.34232 43.101 2.432C42.8945 2.52184 42.7287 2.6429 42.6032 2.79533C42.4775 2.94793 42.3856 3.12487 42.3273 3.32668C42.2689 3.52849 42.2399 3.73699 42.2399 3.95218C42.2399 4.55315 42.3698 4.99483 42.63 5.2774C42.8901 5.55997 43.2712 5.70125 43.7736 5.70125H44.0157L44.016 5.70177Z" fill="#EE426F"/>
</g>
<defs>
<clipPath id="clip0_124_50958">
<rect width="45.3936" height="7.27871" fill="white" transform="translate(0.842407 0.360596)"/>
</clipPath>
</defs>
</svg>
